                        <svg class="w-8 h-8 text-gray-500" fill="none" viewBox="0 0 30 30" stroke="currentColor">
                            <path stroke-linecap="round" stroke-linejoin="round" stroke-width="2" d="M6.51 6.35a1 1 0 1 1 0 2h8.8a1 1 0 1 1 0 2H6.51a1 1 0 1 1 0-2zm0 3.85a1 1 0 1 1 0-2h4.4a1 1 0 1 1 0 2h-4.4zM3 3.55c0-.636.515-1.15 1.15-1.15h14.9c.636 0 1.15.514 1.15 1.15v16.9c0 .636-.514 1.15-1.15 1.15H17.59H3c-.636 0-1.15-.514-1.15-1.15V3.55z"/>
                            <path fill="#fff" d="M18.401 21.7s-4.4-2.475-4.4-6.49c0-4.015 1.451-5.163 2.28-6.012.829- .849 1.965-1.327 3.151-1.327 1.186 0 2.322.478 3.151 1.327.829 .849 2.280 1.997 2.280 6.012 0 4.015-4.4 6.49-4.4 6.49z"/>
                            <circle cx="18.401" cy="15.1" r="1.65"/>
                        </svg>

