<?xml version="1.0" encoding="utf-8"?>
<!-- Generator: Adobe Illustrator 25.2.3, SVG Export Plug-In . SVG Version: 6.00 Build 0)  -->
<svg version="1.1" id="Layer_1" xmlns="http://www.w3.org/2000/svg" xmlns:xlink="http://www.w3.org/1999/xlink" x="0px" y="0px"
	 viewBox="0 0 28 28" style="enable-background:new 0 0 28 28;" xml:space="preserve">
<style type="text/css">
	.st0{fill:#D04F45;}
	.st1{fill:none;stroke:#C9947D;stroke-miterlimit:10;}
</style>
<path fill="#D04F45" d="M26.9,19.7c0.1,0.6,0.1,1.2,0,1.8c-0.1,0.5-0.6,0.7-1,0.3c-0.8-0.7-1.5-1.3-2.3-2s-1.6-1.4-2.4-2.1
	c-0.1-0.1-0.1-0.1-0.2-0.1s-0.1,0.2-0.1,0.2c-0.1,1.6-0.2,3.2-0.3,4.8c0,0.4-0.1,0.9-0.1,1.3c0,0.3-0.1,0.6-0.4,0.7s-0.5,0-0.7-0.3
	c-1.5-1.5-3-3-4.5-4.5c-0.1-0.1-0.1-0.2-0.2-0.2c-0.1,0-0.1,0.2-0.1,0.3c-0.4,2.1-0.9,4.2-1.3,6.3v0.1c-0.1,0.3-0.2,0.5-0.5,0.5
	s-0.5-0.1-0.6-0.3c-0.1-0.2-0.3-0.3-0.4-0.5c-1.2-1.6-2.4-3.2-3.6-4.8C8.1,21.1,8.1,21,8,21c-0.3,0.6-0.6,1.3-0.9,1.9
	c-0.7,1.5-1.4,3-2.1,4.5C4.9,27.9,4.7,28,4.4,28c-0.3,0-0.4-0.2-0.5-0.4c-0.6-1.3-1.1-2.5-1.7-3.8C1.7,22.9,1.3,22,1,21.2
	c-0.1-0.2-0.2-0.3-0.4-0.3c-0.3,0-0.4-0.2-0.6-0.3c0-0.2,0-0.3,0-0.5c0.2-0.3,0.5-0.3,0.8-0.3c0.6,0,1.3,0,1.9,0
	c1.5-0.1,3.1-0.2,4.6-0.4c2.4-0.3,4.9-0.9,7.2-1.6c3-0.9,5.8-2,8.6-3.5c0.2-0.1,0.2-0.1,0.1-0.3c-1.1-2-2.1-4-3.2-6
	c-0.1-0.3-0.2-0.2-0.3,0c-1.1,1.7-2.3,3.4-3.4,5.1c-0.2,0.2-0.3,0.5-0.5,0.7c-0.1,0.2-0.3,0.3-0.6,0.2c-0.2,0-0.4-0.2-0.4-0.4
	c0-0.1-0.1-0.3-0.1-0.4C14.2,11,13.6,8.9,13,6.9c0-0.1,0-0.2-0.1-0.2s-0.1,0.1-0.2,0.2c-1.1,1.2-2.2,2.4-3.3,3.7
	C9,11.1,8.6,11.5,8.2,12c-0.1,0-0.3,0.1-0.5,0c-0.2-0.1-0.4-0.2-0.4-0.5c0-0.1,0-0.3-0.1-0.4C7,9.6,6.8,8,6.6,6.5
	C6.5,5.9,6.4,5.3,6.4,4.7c-0.1,0-0.2,0.1-0.3,0.2c-1.5,1.5-3,3-4.5,4.5C1.4,9.6,1.1,9.7,0.9,9.6C0.6,9.5,0.5,9.3,0.5,9
	c0-0.2,0-0.5,0-0.7c-0.1-2-0.2-3.9-0.3-5.9C0.1,2,0,1.7,0,1.3s0-0.8,0-1.2C0,0,0,0,0.1,0c0.2,0,0.4,0,0.6,0c1.9,1,3.9,1.9,6,2.7
	c3.4,1.3,6.8,2.2,10.4,2.7c1.6,0.2,3.3,0.4,4.9,0.5c1.4,0.1,2.8,0,4.2,0c0.4,0,0.8,0,1.2,0C27.7,5.8,28,6,28,6.4
	C28,6.7,27.8,7,27.4,7c-0.2,0-0.3,0.1-0.3,0.3c-0.7,1.9-1.5,3.9-2.2,5.8c0,0-0.1,0.1,0,0.2c0.1,0,0.2-0.1,0.3-0.1
	c0.7-0.4,1.3-0.8,2-1.2c0.2-0.1,0.4-0.2,0.6,0c0.2,0.1,0.3,0.3,0.3,0.6c0,0.2-0.1,0.3-0.2,0.4c0,0-0.1,0.1-0.2,0.1
	c-0.6,0.2-0.9,0.7-0.7,1.3c0,0.2,0,0.4,0,0.6 M25.7,14.8c0-0.2,0-0.3,0-0.5s-0.1-0.2-0.2-0.1c-0.4,0.3-0.9,0.5-1.3,0.7
	c-0.8,0.5-1.7,0.9-2.5,1.3c-0.2,0.1-0.2,0.1-0.1,0.3c1.4,1.2,2.7,2.4,4.1,3.6c0.1-0.1,0-0.2,0-0.3 M15.6,11.9
	c0.1-0.1,0.2-0.2,0.2-0.2c1-1.5,2-3,3-4.6C19,6.8,19,6.8,18.7,6.7c-1.5-0.2-2.9-0.4-4.4-0.7C14,6,14,6.1,14.1,6.3
	c0.3,1.1,0.6,2.1,0.9,3.2C15.2,10.3,15.4,11.1,15.6,11.9z M23.8,12.5L23.8,12.5c0.7-1.8,1.4-3.5,2-5.2c0.1-0.2,0-0.2-0.2-0.2
	c-1.5,0-3,0-4.5-0.1c-0.2,0-0.3,0-0.2,0.2c0.6,1.2,1.3,2.4,1.9,3.5C23.2,11.3,23.5,11.9,23.8,12.5z M1.2,2c0,0.4,0,0.8,0.1,1.2
	C1.4,4.6,1.5,6,1.6,7.5c0,0.1,0,0.2,0,0.2c0.1,0,0.1-0.1,0.2-0.1c1.3-1.2,2.5-2.5,3.8-3.7c0.2-0.2,0.2-0.2-0.1-0.3
	C4.2,3,2.9,2.4,1.6,1.7C1.2,1.5,1.2,1.5,1.2,2z M12.2,5.6c-0.1,0-0.2-0.1-0.3-0.1c-1.4-0.3-2.8-0.7-4.1-1.2C7.5,4.2,7.5,4.2,7.5,4.6
	C7.7,6,7.9,7.4,8.1,8.8c0.1,0.4,0.1,0.8,0.2,1.3C9.6,8.6,10.9,7.1,12.2,5.6z M12.3,25c0.1-0.5,0.2-0.8,0.3-1.2
	c0.3-1.4,0.6-2.8,0.9-4.2c0.1-0.3,0-0.3-0.2-0.3c-1.4,0.4-2.8,0.7-4.2,0.9c-0.3,0-0.2,0.1-0.1,0.3c0.6,0.8,1.2,1.6,1.8,2.4
	C11.2,23.5,11.8,24.2,12.3,25z M4.4,26c0.1-0.1,0.1-0.2,0.1-0.3c0.7-1.6,1.5-3.3,2.2-4.9c0.2-0.3,0.1-0.4-0.2-0.3c0,0,0,0-0.1,0
	c-1.4,0.2-2.7,0.3-4.1,0.3c-0.3,0-0.3,0.1-0.2,0.3c0.5,1.1,1,2.3,1.5,3.4C4,25,4.2,25.5,4.4,26z M19.8,17.2c0-0.2,0-0.2-0.3-0.1
	c-1.3,0.5-2.6,1-3.9,1.4c-0.2,0.1-0.2,0.1-0.1,0.3c0.9,0.8,1.7,1.7,2.6,2.5c0.4,0.4,0.8,0.8,1.2,1.2l0.1,0.1c0.1,0,0.1-0.1,0.1-0.2
	c0-0.2,0-0.4,0-0.5C19.6,20.4,19.7,18.9,19.8,17.2z"/>
<circle fill="none" cx="24.2" cy="25.2" r="1.6"/>
<circle fill="none" cx="4.5" cy="14.5" r="1.6"/>
<circle fill="none" cx="24.2" cy="2.3" r="1.6"/>
</svg>
