<?xml version="1.0" encoding="utf-8"?>
<!-- Generator: Adobe Illustrator 25.2.3, SVG Export Plug-In . SVG Version: 6.00 Build 0)  -->
<svg version="1.1" id="Layer_1" xmlns="http://www.w3.org/2000/svg" xmlns:xlink="http://www.w3.org/1999/xlink" x="0px" y="0px"
	 viewBox="0 0 28 28" style="enable-background:new 0 0 28 28;" xml:space="preserve">
<style type="text/css">
	.st0{fill:#3A4162;}
	.st1{fill:#336E83;}
	.st2{fill:#348915;}
	.st3{fill:#F7CE72;}
	.st4{fill:#F77269;}
	.st5{fill:#D04F45;}
</style>
<path class="st0" d="M7,0.8h2.1v10.1H7L2.4,4.4v6.5H0.2V0.8h2.2L7,7.3V0.8z"/>
<path class="st1" d="M10.8,5.9c0-1.5,0.5-2.7,1.5-3.7s2.2-1.5,3.5-1.5c1.5,0,2.7,0.5,3.7,1.5S21,4.4,21,5.9s-0.5,2.7-1.5,3.7
	S17.3,11,15.8,11s-2.7-0.5-3.6-1.5C11.3,8.6,10.8,7.4,10.8,5.9z M15.9,2.7c-0.8,0-1.5,0.3-2,0.9S13.1,5,13.1,5.9s0.3,1.6,0.8,2.2
	S15,9,15.8,9s1.5-0.3,2-0.9s0.8-1.3,0.8-2.3c0-0.9-0.3-1.7-0.8-2.3C17.4,3,16.7,2.7,15.9,2.7z"/>
<path class="st2" d="M22.8,0.8H25v7.9h3v2.2h-5.1V0.8H22.8z"/>
<path class="st3" d="M0,17.1h2.2V25h3v2.2H0V17.1z"/>
<path class="st4" d="M6.2,22.1c0-1.5,0.5-2.7,1.5-3.7S9.8,17,11.2,17c1.5,0,2.7,0.5,3.7,1.5s1.5,2.2,1.5,3.7s-0.5,2.7-1.5,3.7
	s-2.2,1.5-3.7,1.5s-2.7-0.5-3.6-1.5S6.2,23.6,6.2,22.1z M11.3,19c-0.8,0-1.5,0.3-2,0.9s-0.8,1.4-0.8,2.3s0.3,1.6,0.8,2.2
	s1.2,0.9,2,0.9s1.5-0.3,2-0.9s0.8-1.3,0.8-2.3c0-0.9-0.3-1.7-0.8-2.3C12.8,19.3,12.1,19,11.3,19z"/>
<path class="st5" d="M17.8,22.1c0-1.5,0.5-2.7,1.5-3.7s2.2-1.5,3.5-1.5c1.5,0,2.7,0.5,3.7,1.5s1.5,2.2,1.5,3.7s-0.5,2.7-1.5,3.7
	s-2.2,1.5-3.7,1.5s-2.7-0.5-3.6-1.5C18.3,24.9,17.8,23.6,17.8,22.1z M22.9,19c-0.8,0-1.5,0.3-2,0.9s-0.8,1.4-0.8,2.3
	s0.3,1.6,0.8,2.2s1.2,0.9,2,0.9s1.5-0.3,2-0.9s0.8-1.3,0.8-2.3c0-0.9-0.3-1.7-0.8-2.3C24.4,19.3,23.8,19,22.9,19z"/>
</svg>
