<?xml version="1.0" encoding="utf-8"?>
<!-- Generator: Adobe Illustrator 25.2.3, SVG Export Plug-In . SVG Version: 6.00 Build 0)  -->
<svg version="1.1" id="Layer_1" xmlns="http://www.w3.org/2000/svg" xmlns:xlink="http://www.w3.org/1999/xlink" x="0px" y="0px"
	 viewBox="0 0 30 30" style="enable-background:new 0 0 30 30;" xml:space="preserve">
<style type="text/css">
	.st0{fill:#D04F45;}
	.st1{fill:none;stroke:#C9947D;stroke-width:0.5;stroke-miterlimit:10;}
</style>
<path fill="#D04F45" d="M28.8,20.9c0.1,0.6,0.1,1.2,0,1.8c-0.1,0.5-0.6,0.7-1,0.3c-0.8-0.7-1.5-1.3-2.3-2c-0.8-0.7-1.6-1.4-2.4-2.1
	c-0.1-0.1-0.1-0.1-0.2-0.1S22.8,19,22.8,19c-0.1,1.6-0.2,3.2-0.3,4.8c0,0.4-0.1,0.9-0.1,1.3c0,0.3-0.1,0.6-0.4,0.7
	c-0.3,0.1-0.5,0-0.7-0.3c-1.5-1.5-3-3-4.5-4.5c-0.1-0.1-0.1-0.2-0.2-0.2s-0.1,0.2-0.1,0.3c-0.4,2.1-0.9,4.2-1.3,6.3v0.1
	c-0.1,0.3-0.2,0.5-0.5,0.5s-0.5-0.1-0.6-0.3c-0.1-0.2-0.3-0.3-0.4-0.5c-1.2-1.6-2.4-3.2-3.6-4.8c-0.1-0.1-0.1-0.2-0.2-0.2
	c-0.3,0.6-0.6,1.3-0.9,1.9c-0.7,1.5-1.4,3-2.1,4.5C7,29,6.8,29.1,6.5,29.1S6.1,28.9,6,28.7c-0.6-1.3-1.1-2.5-1.7-3.8
	c-0.5-0.9-0.9-1.8-1.2-2.6c-0.1-0.2-2.2-0.3-2.4-0.3c-0.3,0-0.4-0.2-0.6-0.3c0-0.2,0-0.3,0-0.5C0.3,21,0.6,21,0.9,21
	c0.6,0,2.3,0.2,3.9,0c1.5-0.1,3.1-0.2,4.6-0.4c2.4-0.3,4.9-0.9,7.2-1.6c3-0.9,5.8-2,8.5-3.5c0.2-0.1,0.2-0.1,0.1-0.3
	c-1.1-2-2.1-4-3.2-6c-0.1-0.3-0.2-0.2-0.3,0c-1.1,1.7-2.3,3.4-3.4,5.1c-0.2,0.2-0.3,0.5-0.5,0.7c-0.1,0.2-0.3,0.3-0.6,0.2
	c-0.2,0-0.4-0.2-0.4-0.4c0-0.1-0.1-0.3-0.1-0.4c-0.5-2.2-1.1-4.3-1.7-6.3C15,8.1,15,8,14.9,8c-0.1,0-0.1,0.1-0.2,0.2
	c-1.1,1.2-2.2,2.4-3.3,3.7c-0.4,0.5-0.8,0.9-1.2,1.4c-0.1,0-0.3,0.1-0.5,0c-0.2-0.1-0.4-0.2-0.4-0.5c0-0.1,0-0.3-0.1-0.4
	C9,10.8,8.8,9.2,8.6,7.8C8.5,7.2,8.4,6.6,8.4,6C8.3,6,8.2,6.1,8.1,6.2c-1.5,1.5-3,3-4.5,4.5c-0.2,0.2-0.5,0.3-0.7,0.2
	c-0.3-0.1-0.4-0.3-0.4-0.6c0-0.2,0-0.5,0-0.7c-0.1-2-0.2-3.9-0.3-5.9C2.2,3.3,2.4,2.9,2.1,2.6c-1.2-1.2-1-1-0.8-1.3
	C1.3,1,2.1,1,2.2,1c0.2,0,0.3,0.1,0.6,0.3c1.9,1,3.9,1.9,6,2.7c3.4,1.3,6.8,2.2,10.3,2.7c1.6,0.2,3.3,0.4,4.9,0.5
	c1.4,0.1,2.8,0,4.2,0c0.4,0,0.8,0,1.2,0c0.3-0.1,0.6,0.1,0.6,0.5c0,0.3-0.2,0.6-0.6,0.6c-0.2,0-0.3,0.1-0.3,0.3
	c-0.7,1.9-1.5,3.9-2.2,5.8c0,0-0.1,0.1,0,0.2c0.1,0,0.2-0.1,0.3-0.1c0.7-0.4,1.3-0.8,2-1.2c0.2-0.1,0.4-0.2,0.6,0
	c0.2,0.1,0.3,0.3,0.3,0.6c0,0.2-0.1,0.3-0.2,0.4c0,0-0.1,0.1-0.2,0.1c-0.6,0.2-0.9,0.6-0.7,1.2c0,0.2,0,0.5,0,0.7 M27.6,16
	c0-0.2,0-0.3,0-0.5c0-0.2-0.1-0.2-0.2-0.1c-0.4,0.3-0.9,0.5-1.3,0.7c-0.8,0.5-1.7,0.9-2.5,1.3c-0.2,0.1-0.2,0.1-0.1,0.3
	c1.4,1.2,2.7,2.4,4.1,3.6c0.1-0.1,0-0.2,0-0.3 M17.6,13.1c0.1-0.1,0.2-0.2,0.2-0.2c1-1.5,2-3,3-4.6C21,8.1,21,8.1,20.7,8
	c-1.5-0.2-2.9-0.4-4.4-0.7c-0.3,0-0.3,0.1-0.2,0.3c0.3,1.1,0.6,2.1,0.9,3.2C17.2,11.5,17.4,12.3,17.6,13.1z M25.7,13.7L25.7,13.7
	c0.7-1.8,1.4-3.5,2-5.2c0.1-0.2,0-0.2-0.2-0.2c-1.5,0-3,0-4.5-0.1c-0.2,0-0.3,0-0.2,0.2c0.6,1.2,1.3,2.4,1.9,3.5
	C25.1,12.5,25.4,13.1,25.7,13.7z M3.3,3.3c0,0.4,0,0.8,0.1,1.2c0.1,1.4,0.2,2.8,0.3,4.3c0,0.1,0,0.2,0,0.2c0.1,0,0.1-0.1,0.2-0.1
	c1.3-1.2,2.5-2.5,3.8-3.7C7.8,5,7.8,5,7.6,4.9C6.3,4.3,5,3.7,3.7,3C3.3,2.8,3.3,2.8,3.3,3.3z M14.2,6.9c-0.1,0-0.2-0.1-0.3-0.1
	c-1.4-0.3-2.8-0.7-4.1-1.2C9.5,5.5,9.5,5.5,9.5,5.9c0.2,1.4,0.4,2.8,0.6,4.2c0.1,0.4,0.1,0.8,0.2,1.3C11.6,9.8,12.9,8.3,14.2,6.9z
	 M14.3,26.1c0.1-0.5,0.2-0.8,0.3-1.2c0.3-1.4,0.6-2.8,0.9-4.2c0.1-0.3,0-0.3-0.2-0.3c-1.4,0.4-2.8,0.7-4.2,0.9
	c-0.3,0-0.2,0.1-0.1,0.3c0.6,0.8,1.2,1.6,1.8,2.4C13.2,24.6,13.8,25.3,14.3,26.1z M6.5,27.1c0.1-0.1,0.1-0.2,0.1-0.3
	C7.3,25.2,8,23.5,8.7,22c0.2-0.3,0.1-0.4-0.2-0.3c0,0,0,0-0.1,0C7.1,21.9,5.8,22,4.4,22c-0.3,0-0.3,0.1-0.2,0.3
	c0.5,1.1,1,2.3,1.5,3.4C6.1,26.1,6.3,26.6,6.5,27.1z M21.8,18.4c0-0.2,0-0.2-0.3-0.1c-1.3,0.5-2.6,1-3.9,1.4
	c-0.2,0.1-0.2,0.1-0.1,0.3c0.9,0.8,1.7,1.7,2.6,2.5c0.4,0.4,0.8,0.8,1.2,1.2l0.1,0.1c0.1,0,0.1-0.1,0.1-0.2c0-0.2,0-0.4,0-0.5
	C21.6,21.6,21.7,20.1,21.8,18.4z"/>
<circle fill="none" cx="25.3" cy="26.3" r="1.6"/>
<circle fill="none" cx="5.8" cy="15.7" r="1.6"/>
<circle fill="none" cx="25.3" cy="3.6" r="1.6"/>
</svg>
